<?xml version="1.0" encoding="utf-8"?>
<!-- Generator: Adobe Illustrator 25.0.0, SVG Export Plug-In . SVG Version: 6.00 Build 0)  -->
<svg version="1.1" id="Flat" xmlns="http://www.w3.org/2000/svg" xmlns:xlink="http://www.w3.org/1999/xlink" x="0px" y="0px"
	 viewBox="0 0 256 256" style="enable-background:new 0 0 256 256;" xml:space="preserve">
<style type="text/css">
	.st0{fill:#E5E5E5;}
</style>
<path class="st0" d="M224,128c0,4.4-3.6,8-8,8H59.3l58.3,58.3c3.1,3.1,3.1,8.2,0,11.3s-8.2,3.1-11.3,0l-72-72
	c-3.1-3.1-3.1-8.2,0-11.3c0,0,0,0,0,0l72-72c3.1-3.1,8.2-3.1,11.3,0c3.1,3.1,3.1,8.2,0,11.3L59.3,120H216
	C220.4,120,224,123.6,224,128z"/>
</svg>
