<svg width="512" height="512" xmlns="http://www.w3.org/2000/svg">

 <g>
  <title>background</title>
  <rect fill="none" id="canvas_background" height="402" width="582" y="-1" x="-1"/>
 </g>
 <g>
  <title>Layer 1</title>
  <g id="svg_1">
   <g id="svg_2">
    <path fill="#ffffff" id="svg_3" d="m497.36,69.995c-7.532,-7.545 -19.753,-7.558 -27.285,-0.032l-231.493,230.882l-83.522,-90.713c-7.217,-7.834 -19.419,-8.342 -27.266,-1.126c-7.841,7.217 -8.343,19.425 -1.126,27.266l97.126,105.481c3.557,3.866 8.535,6.111 13.784,6.22c0.141,0.006 0.277,0.006 0.412,0.006c5.101,0 10.008,-2.026 13.623,-5.628l245.709,-245.065c7.551,-7.525 7.564,-19.746 0.038,-27.291z"/>
   </g>
  </g>
  <g id="svg_4">
   <g id="svg_5">
    <path fill="#ffffff" id="svg_6" d="m492.703,236.703c-10.658,0 -19.296,8.638 -19.296,19.297c0,119.883 -97.524,217.407 -217.407,217.407c-119.876,0 -217.407,-97.524 -217.407,-217.407c0,-119.876 97.531,-217.407 217.407,-217.407c10.658,0 19.297,-8.638 19.297,-19.296c0,-10.659 -8.639,-19.297 -19.297,-19.297c-141.16,0 -256,114.84 -256,256c0,141.154 114.84,256 256,256c141.154,0 256,-114.846 256,-256c0,-10.658 -8.638,-19.297 -19.297,-19.297z"/>
   </g>
  </g>
  <g id="svg_7"/>
  <g id="svg_8"/>
  <g id="svg_9"/>
  <g id="svg_10"/>
  <g id="svg_11"/>
  <g id="svg_12"/>
  <g id="svg_13"/>
  <g id="svg_14"/>
  <g id="svg_15"/>
  <g id="svg_16"/>
  <g id="svg_17"/>
  <g id="svg_18"/>
  <g id="svg_19"/>
  <g id="svg_20"/>
  <g id="svg_21"/>
 </g>
</svg>