<svg width="480.002" height="480.002" xmlns="http://www.w3.org/2000/svg">

 <g>
  <title>background</title>
  <rect fill="none" id="canvas_background" height="402" width="582" y="-1" x="-1"/>
 </g>
 <g>
  <title>Layer 1</title>
  <path fill="#ffffff" id="svg_1" d="m413.176,369.138l-19.473,19.473c5.419,11.117 8.297,23.401 8.297,36.132l0,47.257c0,4.418 -3.582,8 -8,8s-8,-3.582 -8,-8l0,-47.257c0,-35.015 -26.92,-63.564 -61.09,-66.332l-33.22,115.795c-1.007,3.51 -4.208,5.796 -7.686,5.796c-5.319,0 -9.159,-5.1 -7.694,-10.208l32.362,-112.803c-13.017,-2.853 -24.364,-10.825 -31.503,-22.546c-2.299,-3.773 -1.103,-8.695 2.67,-10.994c3.772,-2.3 8.695,-1.103 10.994,2.67c5.819,9.553 15.767,15.436 26.854,15.995c0.993,-0.166 2.029,-0.145 3.064,0.088c24.978,0.391 48.511,11.843 64.299,32.433l16.812,-16.812c6.528,-6.528 7.137,-16.916 1.416,-24.162c-12.686,-16.058 -9.461,-35.485 2.702,-46.953c6.831,-6.44 7.604,-17.24 1.759,-24.587l-11.516,-14.477c-6.933,-8.716 -9.191,-20.297 -6.039,-30.98l7.445,-25.23c2.653,-8.991 -1.888,-18.452 -10.562,-22.006l-9.826,-4.026c-12.903,-5.288 -21.241,-17.711 -21.241,-31.651l0,-25.749c0,-50.733 -41.271,-92.004 -92,-92.004l-48,0c-50.729,0 -92,41.273 -92,92.004l0,25.749c0,13.94 -8.337,26.363 -21.24,31.651l-9.827,4.026c-8.674,3.554 -13.214,13.015 -10.562,22.006l7.445,25.23c3.152,10.683 0.895,22.264 -6.039,30.98l-11.516,14.477c-5.844,7.347 -5.071,18.146 1.759,24.587c12.184,11.487 15.373,30.91 2.7,46.955c-5.72,7.245 -5.111,17.632 1.417,24.16l16.812,16.812c15.478,-20.185 39.207,-32.465 65.621,-32.465c18.463,0 33.429,-14.877 33.429,-33.341l0,-2.102c-33.067,-15.745 -55.181,-46.937 -59.994,-81.877c-0.603,-4.377 2.457,-8.414 6.833,-9.017c4.375,-0.604 8.414,2.457 9.017,6.833c6.161,44.728 44.914,78.457 90.144,78.457c50.178,0 91,-40.822 91,-91l0,-49.317c-18.703,-6.779 -35.017,-19.818 -45.674,-38.044c-38.579,44.82 -93.665,70.894 -152.006,73.229c-4.405,0.178 -8.136,-3.252 -8.313,-7.674c-0.177,-4.415 3.259,-8.137 7.674,-8.313c57.611,-2.304 111.893,-29.584 147.959,-76.859c3.768,-4.941 11.505,-3.872 13.796,1.901c8.398,21.157 26.034,36.369 46.751,42.256c3.048,0.854 5.52,3.603 5.783,7.088c0.05,0.656 0.038,56.23 0.027,56.571c-0.546,70.5 -68.621,121.934 -137.165,101.802c-1.04,13.255 -7.35,25.734 -18.34,34.562l48.508,37.555l28.53,-22.087c3.496,-2.705 8.519,-2.064 11.223,1.428c2.705,3.494 2.065,8.519 -1.428,11.223l-30.325,23.477l0,57.077c0,4.418 -3.582,8 -8,8s-8,-3.582 -8,-8l0,-57.076l-55.864,-43.249c-8.677,2.862 -16.325,2.498 -15.563,2.498c-36.794,-0.001 -66.573,29.773 -66.573,66.571l0,47.256c0,4.418 -3.582,8 -8,8s-8,-3.582 -8,-8l0,-47.257c0,-12.731 2.878,-25.015 8.297,-36.132l-19.473,-19.473c-11.395,-11.395 -14.404,-30.522 -1.979,-46.254c5.891,-7.462 5.117,-18.01 -1.802,-24.533c-12.832,-12.099 -14.283,-32.387 -3.304,-46.189l11.516,-14.478c3.691,-4.639 4.892,-10.804 3.214,-16.491l-7.445,-25.23c-4.984,-16.891 3.546,-34.663 19.841,-41.34l9.827,-4.026c6.868,-2.814 11.306,-9.427 11.306,-16.845l0,-25.749c0.004,-59.552 48.453,-108.003 108.004,-108.003l48,0c59.551,0 108,48.449 108,108l0,25.753c0,7.418 4.438,14.031 11.307,16.846l9.826,4.025c16.296,6.677 24.826,24.449 19.842,41.34l-7.445,25.23c-1.678,5.687 -0.477,11.852 3.214,16.491l11.516,14.477c10.979,13.802 9.527,34.091 -3.304,46.189c-6.919,6.523 -7.693,17.071 -1.801,24.535c12.219,15.467 9.63,34.643 -1.98,46.252zm-233.476,15.688c-1.201,-4.252 -5.621,-6.728 -9.873,-5.525c-4.252,1.201 -6.726,5.621 -5.525,9.873l24,85c1.201,4.253 5.622,6.725 9.873,5.525c4.252,-1.201 6.726,-5.621 5.525,-9.873l-24,-85z"/>
 </g>
</svg>